<?xml version="1.0" encoding="UTF-8"?>
<!DOCTYPE svg PUBLIC "-//W3C//DTD SVG 1.1//EN" "http://www.w3.org/Graphics/SVG/1.1/DTD/svg11.dtd">
<!-- Creator: CorelDRAW -->
<svg xmlns="http://www.w3.org/2000/svg" xml:space="preserve" width="6.82666in" height="6.82666in" style="shape-rendering:geometricPrecision; text-rendering:geometricPrecision; image-rendering:optimizeQuality; fill-rule:evenodd; clip-rule:evenodd"
viewBox="0 0 6.82666 6.82666"
 xmlns:xlink="http://www.w3.org/1999/xlink">
 <defs>
  <style type="text/css">
   <![CDATA[
    .fil2 {fill:none}
    .fil1 {fill:#212121}
    .fil0 {fill:#212121;fill-rule:nonzero}
   ]]>
  </style>
 </defs>
 <g id="Layer_x0020_1">
  <metadata id="CorelCorpID_0Corel-Layer"/>
  <path class="fil0" d="M2.09495 0.866669l2.63676 0c0.0691811,0 0.129799,0.0356732 0.171724,0.0931299 0.0349016,0.0478268 0.0565669,0.111752 0.0565669,0.180205l0 4.54665c0,0.0684488 -0.0216693,0.132378 -0.0565669,0.180197 -0.0419291,0.0574606 -0.102551,0.0931378 -0.171724,0.0931378l-2.63676 0c-0.0691732,0 -0.129795,-0.0356732 -0.171728,-0.0931339 -0.0348937,-0.047815 -0.056563,-0.11174 -0.056563,-0.180201l0 -4.54665c0,-0.0684646 0.0216654,-0.13239 0.0565591,-0.180209 0.0419291,-0.0574606 0.102551,-0.093126 0.171732,-0.093126zm2.63676 0.213339l-2.63676 0c-0.0022874,0 0.00209055,0.00183465 -6.29921e-005,0.0047874 -0.00918504,0.0125866 -0.0148898,0.0320079 -0.0148898,0.0552087l0 4.54665c0,0.0231929 0.00570866,0.0426142 0.0148937,0.0552008 0.00215748,0.00295669 -0.00223228,0.00479528 5.90551e-005,0.00479528l2.63676 0c0.00229921,0 -0.00210236,-0.00183858 5.51181e-005,-0.00479921 0.00918898,-0.0125906 0.0148976,-0.0320118 0.0148976,-0.0551969l0 -4.54665c0,-0.023189 -0.00570866,-0.0426142 -0.0148976,-0.0552047 -0.00215354,-0.00295276 0.00224016,-0.00479134 -5.51181e-005,-0.00479134z"/>
  <path class="fil0" d="M3.2 1.17333c-0.0589094,0 -0.106669,0.0477598 -0.106669,0.106669 0,0.0589094 0.0477598,0.106669 0.106669,0.106669l0.426669 0c0.0589094,0 0.106669,-0.0477598 0.106669,-0.106669 0,-0.0589094 -0.0477598,-0.106669 -0.106669,-0.106669l-0.426669 0z"/>
  <polygon class="fil0" points="1.97333,4.90666 4.85333,4.90666 4.85333,5.12 1.97333,5.12 "/>
  <path class="fil0" d="M3.41333 2.54178c0.136244,0 0.259606,0.0552362 0.348906,0.144531 0.0892953,0.0892992 0.144531,0.212661 0.144531,0.348906 0,0.136244 -0.0552402,0.259606 -0.144535,0.348902 -0.0892953,0.0892953 -0.212657,0.144531 -0.348902,0.144531 -0.136244,0 -0.259602,-0.0552362 -0.348902,-0.144531 -0.0892953,-0.0892992 -0.144531,-0.212657 -0.144531,-0.348902 0,-0.136244 0.0552362,-0.259606 0.144531,-0.348906 0.0892992,-0.0892953 0.212657,-0.144531 0.348902,-0.144531zm0.198071 0.295366c-0.0506811,-0.0506772 -0.120713,-0.0820276 -0.198071,-0.0820276 -0.0773543,0 -0.147386,0.0313504 -0.198067,0.0820276 -0.0506772,0.0506811 -0.0820276,0.120713 -0.0820276,0.198071 0,0.0773583 0.0313504,0.147386 0.0820276,0.198067 0.0506811,0.0506772 0.120713,0.0820276 0.198067,0.0820276 0.0773583,0 0.14739,-0.0313504 0.198067,-0.0820276 0.0506772,-0.0506772 0.0820315,-0.120709 0.0820315,-0.198067 0,-0.0773583 -0.0313504,-0.14739 -0.0820276,-0.198071z"/>
  <path class="fil0" d="M2.61126 3.54438c0.084811,0 0.161614,0.0343937 0.217205,0.0899843 0.0555906,0.0555906 0.0899843,0.132394 0.0899843,0.217205 0,0.0848189 -0.0343937,0.161618 -0.0899843,0.217205 -0.0555906,0.0555906 -0.132394,0.0899843 -0.217205,0.0899843 -0.0848189,0 -0.161618,-0.0343937 -0.217205,-0.0899843 -0.0555906,-0.0555866 -0.0899843,-0.132386 -0.0899843,-0.217205 0,-0.084811 0.0343937,-0.161614 0.0899843,-0.217205 0.0555866,-0.0555906 0.132386,-0.0899843 0.217205,-0.0899843zm0.0663701 0.240819c-0.0169724,-0.0169724 -0.0404449,-0.0274803 -0.0663701,-0.0274803 -0.0259252,0 -0.0493976,0.0105039 -0.0663701,0.0274803 -0.0169724,0.0169724 -0.0274803,0.0404449 -0.0274803,0.0663701 0,0.0259252 0.0105039,0.0493976 0.0274803,0.0663701 0.0169724,0.0169764 0.0404449,0.0274803 0.0663701,0.0274803 0.0259252,0 0.0493976,-0.0105079 0.0663701,-0.0274803 0.0169764,-0.0169724 0.0274803,-0.0404449 0.0274803,-0.0663701 0,-0.0259252 -0.0105079,-0.0493976 -0.0274803,-0.0663701z"/>
  <polygon class="fil0" points="2.66032,3.6511 3.0461,3.24776 3.20027,3.39443 2.81449,3.79777 "/>
  <path class="fil0" d="M4.21541 3.75772c-0.0259252,0 -0.0493976,0.0105079 -0.0663701,0.0274803 -0.0169724,0.0169724 -0.0274803,0.0404449 -0.0274803,0.0663701 0,0.0259252 0.0105039,0.0493976 0.0274803,0.0663701 0.0169724,0.0169724 0.0404449,0.0274803 0.0663701,0.0274803 0.0259252,0 0.0493976,-0.0105039 0.0663701,-0.0274803 0.0169764,-0.0169724 0.0274803,-0.0404449 0.0274803,-0.0663701 0,-0.0259252 -0.0105079,-0.0493976 -0.0274803,-0.0663701 -0.0169724,-0.0169764 -0.0404449,-0.0274803 -0.0663701,-0.0274803zm-0.217205 -0.123354c0.0555906,-0.0555906 0.132394,-0.0899843 0.217205,-0.0899843 0.0848189,0 0.161618,0.0343937 0.217205,0.0899843 0.0555906,0.0555906 0.0899843,0.132394 0.0899843,0.217205 0,0.0848189 -0.0343937,0.161618 -0.0899843,0.217205 -0.0555866,0.0555906 -0.132386,0.0899843 -0.217205,0.0899843 -0.084811,0 -0.161614,-0.0343937 -0.217205,-0.0899843 -0.0555906,-0.0555866 -0.0899843,-0.132386 -0.0899843,-0.217205 0,-0.084811 0.0343937,-0.161614 0.0899843,-0.217205z"/>
  <polygon class="fil0" points="4.01219,3.79777 3.62641,3.39443 3.78057,3.24776 4.16635,3.6511 "/>
  <path class="fil0" d="M2.61126 2.34126c0.0259252,0 0.0493976,-0.0105079 0.0663701,-0.0274803 0.0169724,-0.0169724 0.0274803,-0.0404449 0.0274803,-0.0663701 0,-0.0259252 -0.0105039,-0.0493976 -0.0274803,-0.0663701 -0.0169724,-0.0169724 -0.0404449,-0.0274803 -0.0663701,-0.0274803 -0.0259252,0 -0.0493976,0.0105039 -0.0663701,0.0274803 -0.0169764,0.0169724 -0.0274803,0.0404449 -0.0274803,0.0663701 0,0.0259252 0.0105079,0.0493976 0.0274803,0.0663701 0.0169724,0.0169764 0.0404449,0.0274803 0.0663701,0.0274803zm0.217205 0.123354c-0.0555906,0.0555906 -0.132394,0.0899843 -0.217205,0.0899843 -0.0848189,0 -0.161618,-0.0343937 -0.217205,-0.0899843 -0.0555906,-0.0555906 -0.0899843,-0.132394 -0.0899843,-0.217205 0,-0.0848189 0.0343937,-0.161618 0.0899843,-0.217205 0.0555866,-0.0555906 0.132386,-0.0899843 0.217205,-0.0899843 0.084811,0 0.161614,0.0343937 0.217205,0.0899843 0.0555906,0.0555866 0.0899843,0.132386 0.0899843,0.217205 0,0.084811 -0.0343937,0.161614 -0.0899843,0.217205z"/>
  <polygon class="fil0" points="2.81449,2.30121 3.20027,2.70455 3.0461,2.85122 2.66032,2.44788 "/>
  <path class="fil0" d="M4.21541 2.5546c-0.084811,0 -0.161614,-0.0343937 -0.217205,-0.0899843 -0.0555906,-0.0555906 -0.0899843,-0.132394 -0.0899843,-0.217205 0,-0.0848189 0.0343937,-0.161618 0.0899843,-0.217205 0.0555906,-0.0555906 0.132394,-0.0899843 0.217205,-0.0899843 0.0848189,0 0.161618,0.0343937 0.217205,0.0899843 0.0555906,0.0555866 0.0899843,0.132386 0.0899843,0.217205 0,0.084811 -0.0343937,0.161614 -0.0899843,0.217205 -0.0555866,0.0555906 -0.132386,0.0899843 -0.217205,0.0899843zm-0.0663701 -0.240819c0.0169724,0.0169724 0.0404449,0.0274803 0.0663701,0.0274803 0.0259252,0 0.0493976,-0.0105039 0.0663701,-0.0274803 0.0169724,-0.0169724 0.0274803,-0.0404449 0.0274803,-0.0663701 0,-0.0259252 -0.0105039,-0.0493976 -0.0274803,-0.0663701 -0.0169724,-0.0169764 -0.0404449,-0.0274803 -0.0663701,-0.0274803 -0.0259252,0 -0.0493976,0.0105079 -0.0663701,0.0274803 -0.0169764,0.0169724 -0.0274803,0.0404449 -0.0274803,0.0663701 0,0.0259252 0.0105079,0.0493976 0.0274803,0.0663701z"/>
  <polygon class="fil0" points="4.16635,2.44788 3.78057,2.85122 3.62641,2.70455 4.01219,2.30121 "/>
  <circle class="fil1" cx="3.41333" cy="5.43038" r="0.16325"/>
 </g>
 <rect class="fil2" width="6.82666" height="6.82666"/>
</svg>
