<?xml version="1.0" encoding="UTF-8" standalone="no"?>
<svg
   xmlns:dc="http://purl.org/dc/elements/1.1/"
   xmlns:cc="http://creativecommons.org/ns#"
   xmlns:rdf="http://www.w3.org/1999/02/22-rdf-syntax-ns#"
   xmlns:svg="http://www.w3.org/2000/svg"
   xmlns="http://www.w3.org/2000/svg"
   width="100%"
   height="100%"
   viewBox="0 0 64 64"
   version="1.1"
   xml:space="preserve"
   style="fill-rule:evenodd;clip-rule:evenodd;stroke-linecap:round;stroke-linejoin:round;stroke-miterlimit:2;"
   id="svg19">
  <metadata
   id="metadata25">
    <rdf:RDF>
      <cc:Work
   rdf:about="">
        <dc:format>image/svg+xml</dc:format>

        <dc:type
   rdf:resource="http://purl.org/dc/dcmitype/StillImage" />

      </cc:Work>

    </rdf:RDF>

  </metadata>

  <defs
   id="defs23" />

  
  <path
   d="M18.288,28.044c-0.123,-0.374 -0.08,-0.783 0.117,-1.124c0.196,-0.341 0.529,-0.582 0.915,-0.663c1.932,-0.352 5.457,-0.621 8.548,1.164c3.09,1.784 4.62,4.971 5.281,6.821c0.123,0.374 0.08,0.783 -0.116,1.124c-0.197,0.341 -0.53,0.582 -0.916,0.663c-1.932,0.352 -5.457,0.621 -8.548,-1.163c-3.09,-1.785 -4.62,-4.972 -5.281,-6.822Z"
   style="fill:none;stroke:#222a33;stroke-width:1.5px;"
   id="path3" />

  <path
   d="M33.373,35.535c0.165,0.285 0.444,0.487 0.767,0.555c1.619,0.295 4.571,0.52 7.159,-0.975c2.589,-1.494 3.87,-4.164 4.424,-5.713c0.103,-0.314 0.067,-0.656 -0.097,-0.942c-0.165,-0.285 -0.444,-0.487 -0.767,-0.555c-1.619,-0.295 -4.571,-0.52 -7.16,0.974c-0.599,0.346 -1.128,0.755 -1.594,1.199"
   style="fill:none;stroke:#222a33;stroke-width:1.5px;"
   id="path5" />

  <path
   d="M33.23,35.402l-8.412,-4.871"
   style="fill:none;stroke:#222a33;stroke-width:1.5px;"
   id="path7" />

  <path
   d="M56,17c0,0 0,-2.48 0,-4.678c0,-1.835 -1.487,-3.322 -3.322,-3.322c-8.787,0 -32.569,0 -41.356,0c-1.835,0 -3.322,1.487 -3.322,3.322c0,7.855 0,27.501 0,35.356c0,1.835 1.487,3.322 3.322,3.322c8.787,0 32.569,0 41.356,0c1.835,0 3.322,-1.487 3.322,-3.322c0,-7.657 0,-25.895 0,-25.895"
   style="fill:none;stroke:#222a33;stroke-width:1.5px;"
   id="path9" />

  <path
   d="M12.609,13l1.391,0"
   style="fill:none;stroke:#222a33;stroke-width:1.5px;"
   id="path11" />

  <path
   d="M17,13l2.391,0"
   style="fill:none;stroke:#222a33;stroke-width:1.5px;"
   id="path13" />

  <path
   d="M8,17l48,0"
   style="fill:none;stroke:#222a33;stroke-width:1.5px;"
   id="path15" />

  <path
   d="M24,45l16,0"
   style="fill:none;stroke:#222a33;stroke-width:1.5px;"
   id="path17" />

</svg>
